<svg width="619" height="282" viewBox="0 0 619 282" fill="none" xmlns="http://www.w3.org/2000/svg">
<path fill-rule="evenodd" clip-rule="evenodd" d="M416.99 214.08C410.99 200.95 401.79 197.57 400.39 196.92C387.35 191.1 376.46 196.17 376.46 196.17V215.77C382.46 213.14 386.03 213.32 388.85 213.61C396.73 214.55 399.64 220.84 400.4 222.43C405.27 235.48 398.24 242.99 397.02 244.2C387.92 251.62 379.84 246.92 378.06 245.89C370.74 241.39 370.64 231.63 370.64 228.06L370.92 167.97H352.15L351.96 229.37C351.68 244.3 358.15 252.74 360.31 255.19C376.55 274.23 395.14 266.92 398.42 265.61C416.07 258.19 419.16 242.8 420.01 239.33C422.44 223.11 418.12 216.81 416.99 214.08Z" fill="#00AEEF"/>
<path fill-rule="evenodd" clip-rule="evenodd" d="M543.6 268.04V167.98H562.47V201.03V203.19C562.47 203.19 568.29 195.95 579.55 196.7C582.08 196.9 589.02 197.26 596.16 204.31C597.39 205.62 601.23 208.72 601.79 219.52V268.03H582.83V224.02C582.83 224.02 583.03 218.3 577.96 215.85C576.93 215.38 572.89 213.69 567.54 216.23C566.42 216.79 562.67 219.14 562.67 223.27V268.03H543.6V268.04Z" fill="#00AEEF"/>
<path fill-rule="evenodd" clip-rule="evenodd" d="M539.23 192H527.59V167.98H509.45V192H497.68V204.51H509.45V268.04H527.59V204.51H539.23V192Z" fill="#00AEEF"/>
<path fill-rule="evenodd" clip-rule="evenodd" d="M474.43 247.83V266.7C474.43 266.7 459.04 272.43 445.15 263.88C442.62 262.38 433.43 256.57 430.41 241.82C430.04 240.05 428.34 233.29 431.63 220.04C432.19 217.8 434.25 210.56 441.96 204.1C443.17 202.96 451.9 195.28 466.73 196.21C469.46 196.49 478.19 196.68 489.07 205.31C490.2 206.25 497.23 212.25 497.98 224.64V268.09H479.51V226.7C479.44 224.56 478.38 217.88 469.56 214.78C468.05 214.31 460.35 213.09 455.58 216.93C454.44 217.78 449.84 220.89 448.52 228.57C448.24 229.98 447.11 238.33 451.35 243.31C451.9 244.25 456.03 248.75 463.26 249.6C464.96 249.79 471.24 249.89 474.43 247.83Z" fill="#00AEEF"/>
<path fill-rule="evenodd" clip-rule="evenodd" d="M202.72 210.02V198.01H184.7V268.04H204.58V231.67C205.97 214.14 224.24 216.77 224.24 216.77V197.63C208.73 194.88 202.72 210.02 202.72 210.02Z" fill="#00AEEF"/>
<path fill-rule="evenodd" clip-rule="evenodd" d="M283.81 232.19C283.81 241.91 275.89 249.84 266.16 249.84C256.43 249.84 248.51 241.92 248.51 232.19C248.51 222.46 256.43 214.54 266.16 214.54C275.9 214.54 283.81 222.46 283.81 232.19ZM266.17 195.78C246.08 195.78 229.75 212.11 229.75 232.19C229.75 252.26 246.09 268.6 266.17 268.6C286.24 268.6 302.58 252.26 302.58 232.19C302.58 212.11 286.24 195.78 266.17 195.78Z" fill="#00AEEF"/>
<path fill-rule="evenodd" clip-rule="evenodd" d="M39.99 219.45C43.46 210.81 51.65 204.73 61.18 204.73C70.67 204.73 78.83 210.77 82.32 219.34L39.99 219.45ZM77.13 245.77C73 249.95 67.37 252.51 61.17 252.51C51.27 252.51 42.8 245.93 39.61 236.74H102.46C103.04 233.91 103.35 230.96 103.35 227.95C103.35 204.4 84.43 185.26 61.17 185.26C37.92 185.26 19 204.4 19 227.95C19 251.49 37.92 270.65 61.17 270.65C78.11 270.65 92.75 260.48 99.46 245.87L77.13 245.77Z" fill="#00AEEF"/>
<path fill-rule="evenodd" clip-rule="evenodd" d="M153.04 196.42V244.83C153.04 249 148.35 252.54 142.77 252.54C137.22 252.54 132.51 249 132.51 244.83V196.42H113.73V244.83C113.73 259.43 126.77 271.31 142.77 271.31C158.78 271.31 171.81 259.44 171.81 244.83V196.42H153.04Z" fill="#00AEEF"/>
<path fill-rule="evenodd" clip-rule="evenodd" d="M426.25 73.75C425.66 72.02 422.44 61.21 413.42 52.64C411.84 51.22 404.33 42.89 386.84 39.35C385.56 39.06 371.83 36.66 356.66 42.89C355.77 43.26 348.41 47.32 341.65 54.9C340.38 56.26 310.94 86.13 310.94 86.13L282.86 115.71C280.07 118.26 274.97 124.04 265.14 126.44C263.33 126.9 251.39 130.19 234.79 121.26C233.52 120.44 222.11 113.24 218.73 99.86C218.13 97.39 215.51 85.37 220.98 74.85C221.43 73.95 228.19 60.81 241.18 56.24C242.3 55.71 264.75 46.77 282.77 62.99L231.56 110.68L245.98 121.56L306.05 64.34C306.05 64.34 295.76 42.8 270.76 37.16C267.61 36.56 250.04 33.26 235.54 39.87C233.52 40.77 219.7 46.18 209.93 61.34C209.33 62.32 203.7 70.58 202.21 84.31C202.06 85.59 201.68 97.98 205.97 107.74C206.64 109.55 211.37 120.58 223.24 129.97C224.67 131.01 237.21 140.11 254.32 140.87C257.63 141.01 278.36 141.08 289.24 131.7C292.62 128.93 300.51 122.31 305.17 117.14C306.74 115.32 348.11 67.64 348.11 67.64C349.46 66.37 358.01 55.1 377.84 54.66C380.47 54.81 395.94 55.03 406.31 70.88C407.12 72.3 415.24 82.07 410.89 100.62C410.44 102.12 408.57 111.8 395.2 121.12C393.33 122.31 384.17 128.78 367.72 125.1C365.99 124.8 354.81 120.67 348.94 112.41C347.82 110.84 339.63 99.26 341.96 84.7L325.89 101.83C325.89 101.83 327.84 116.01 340.84 128.79C341.89 129.69 347.98 136.89 362.98 141.09C364.49 141.55 373.42 144.25 385.66 141.99C387.69 141.63 401.06 139.59 412.77 128.93C413.89 127.95 424.32 117.21 427.63 102.88C428.07 100.78 431.52 88.17 426.25 73.75ZM341.12 10H324.15V64.9L341.12 49.88V10Z" fill="#00AEEF"/>
</svg>
